<?xml version="1.0" encoding="utf-8"?>
<!-- Generator: Adobe Illustrator 22.1.0, SVG Export Plug-In . SVG Version: 6.00 Build 0)  -->
<svg version="1.1" id="Layer_1" xmlns="http://www.w3.org/2000/svg" xmlns:xlink="http://www.w3.org/1999/xlink" x="0px" y="0px"
	 viewBox="0 0 52 69" style="enable-background:new 0 0 52 69;" xml:space="preserve">
<style type="text/css">
	.st0{filter:url(#Adobe_OpacityMaskFilter);}
	.st1{fill:#FFFFFF;}
	.st2{mask:url(#mask-2_1_);fill:url(#Fill-1_1_);}
	.st3{filter:url(#Adobe_OpacityMaskFilter_1_);}
	.st4{mask:url(#mask-5_1_);fill:#FFFFFF;}
</style>
<title>Group 7</title>
<desc>Created with Sketch.</desc>
<g id="Symbols">
	<g id="Group-7" transform="translate(26.000000, 15.000000)">
		<g id="Group-3">
			<g id="Clip-2">
			</g>
			<defs>
				<filter id="Adobe_OpacityMaskFilter" filterUnits="userSpaceOnUse" x="-26" y="-14.7" width="51.7" height="52.3">
					<feColorMatrix  type="matrix" values="1 0 0 0 0  0 1 0 0 0  0 0 1 0 0  0 0 0 1 0"/>
				</filter>
			</defs>
			<mask maskUnits="userSpaceOnUse" x="-26" y="-14.7" width="51.7" height="52.3" id="mask-2_1_">
				<g class="st0">
					<polygon id="path-1_1_" class="st1" points="-26,-15.8 25.7,-15.8 25.7,37.8 -26,37.8 					"/>
				</g>
			</mask>
			
				<linearGradient id="Fill-1_1_" gradientUnits="userSpaceOnUse" x1="-669.2989" y1="397.3243" x2="-668.3218" y2="396.3243" gradientTransform="matrix(51.6889 0 0 -52.2923 34569.8008 20762.3516)">
				<stop  offset="0" style="stop-color:#E96401"/>
				<stop  offset="1" style="stop-color:#FD4D7C"/>
			</linearGradient>
			<path id="Fill-1" class="st2" d="M24.6,36.4V9.7c0-4-3.4-7.3-7.6-7.3H17v34H24.6z M-17.2,2.4L-17.2,2.4c-4.2,0-7.6,3.2-7.6,7.2
				v26.8h7.6V2.4z M-2.1,8.8h13V2.4h-13V-10h-1.5c-3.5,0-6.4,2.8-6.4,6.2v0.1v6.3l0,20.5c0,1.5,0.1,2.9,0.4,4.4
				c0.7,3.8,2.6,7,6.4,8.7c4.8,2.1,9.1,1.9,14,0.3v-7c0,0-2.6,1.1-6.4,1.1c-0.5,0-1.1,0-1.6-0.1c-2.5-0.5-4.2-2-4.7-4.7
				c-0.1-0.8-0.2-1.5-0.2-2.3V8.8z M15.8-10.2c0,2.6,2.1,4.7,4.9,4.7c2.8,0,5-2,5-4.7c0-2.6-2.1-4.6-4.9-4.6
				C18-14.8,15.8-12.8,15.8-10.2L15.8-10.2z M-21.1-14.7c2.8,0,5,2,5,4.6c0,2.6-2.2,4.7-5,4.6c-2.8,0-4.9-2-4.9-4.6
				C-26-12.7-23.9-14.7-21.1-14.7L-21.1-14.7z"/>
		</g>
		<g id="Group-6" transform="translate(31.000000, 60.000000)">
			<g id="Clip-5">
			</g>
			<defs>
				<filter id="Adobe_OpacityMaskFilter_1_" filterUnits="userSpaceOnUse" x="-26" y="-15.7" width="18.8" height="9.3">
					<feColorMatrix  type="matrix" values="1 0 0 0 0  0 1 0 0 0  0 0 1 0 0  0 0 0 1 0"/>
				</filter>
			</defs>
			<mask maskUnits="userSpaceOnUse" x="-26" y="-15.7" width="18.8" height="9.3" id="mask-5_1_">
				<g class="st3">
					<polygon id="path-4_1_" class="st1" points="-26,-15.7 -7.2,-15.7 -7.2,-6.4 -26,-6.4 					"/>
				</g>
			</mask>
			<path id="Fill-4" class="st4" d="M-9.3-13.8h-1.3l1.3-1.9h1.6L-9.3-13.8z M-10.4-6.4c-0.6,0-1.2-0.2-1.5-0.7
				c-0.4-0.5-0.6-1.1-0.6-1.8v-4h1.5v3.8c0,0.5,0.1,0.9,0.3,1.1c0.2,0.3,0.5,0.4,0.8,0.4c0.4,0,0.7-0.1,0.9-0.4
				c0.2-0.3,0.3-0.6,0.3-1.1V-13h1.5v6.4h-1.3l-0.1-0.7C-8.8-7-9-6.8-9.4-6.7C-9.7-6.5-10-6.4-10.4-6.4L-10.4-6.4z M-16.4-7.5
				c0.4,0,0.7-0.1,0.9-0.4c0.3-0.3,0.4-0.6,0.4-1v-0.6c-0.1,0-0.2,0-0.2,0c-0.1,0-0.2,0-0.3,0c-0.6,0-1,0.1-1.4,0.3
				c-0.3,0.2-0.5,0.5-0.5,0.8c0,0.3,0.1,0.5,0.3,0.7C-16.9-7.6-16.7-7.5-16.4-7.5L-16.4-7.5z M-16.8-6.4c-0.6,0-1.1-0.2-1.5-0.5
				c-0.4-0.3-0.6-0.8-0.6-1.3c0-0.7,0.3-1.3,0.8-1.7c0.6-0.4,1.4-0.6,2.4-0.6h0.3c0.1,0,0.2,0,0.3,0c0-0.5-0.2-0.8-0.4-1
				c-0.2-0.2-0.6-0.3-1-0.3c-0.6,0-1.2,0.2-1.8,0.5v-1.2c0.6-0.3,1.3-0.5,2-0.5c0.8,0,1.5,0.2,1.9,0.7c0.5,0.5,0.7,1.1,0.7,2v3.8
				h-1.2L-15-7.3c-0.2,0.3-0.5,0.5-0.8,0.7C-16.1-6.5-16.4-6.4-16.8-6.4L-16.8-6.4z M-20.5-6.5c-0.7,0-1.2-0.2-1.5-0.5
				c-0.3-0.4-0.5-0.9-0.5-1.6v-3.1h-1V-13h1v-1.7h1.5v1.7h1.4v1.2H-21v3c0,0.4,0.1,0.6,0.2,0.8s0.4,0.3,0.7,0.3c0.2,0,0.5,0,0.7-0.1
				v1.2C-19.8-6.5-20.1-6.5-20.5-6.5L-20.5-6.5z M-26-6.6h1.5v-8.3H-26V-6.6z"/>
		</g>
	</g>
</g>
</svg>
